<?xml version="1.0" encoding="utf-8"?>
<!-- Generator: Adobe Illustrator 16.0.0, SVG Export Plug-In . SVG Version: 6.00 Build 0)  -->
<!DOCTYPE svg PUBLIC "-//W3C//DTD SVG 1.1//EN" "http://www.w3.org/Graphics/SVG/1.1/DTD/svg11.dtd">
<svg version="1.1" id="Calque_1" xmlns="http://www.w3.org/2000/svg" xmlns:xlink="http://www.w3.org/1999/xlink" x="0px" y="0px"
	 width="1300px" height="750px" viewBox="0 0 1300 750" enable-background="new 0 0 1300 750" xml:space="preserve">
<g transform="translate(0.000000,688.000000) scale(0.100000,-0.100000)">
	<g>
		<a id="area-1" xlink:href="competences.html"  xlink:title="Liens vers Compétences/Soft skill">
			<path fill="#272541" d="M4110.214,5730.625c-47.265-5.327-69.907-19.307-69.907-43.276c0-6.66-9.99-9.321-36.621-9.321
				c-25.972,0-37.285-2.666-41.943-10.654c-3.33-6.66-21.309-13.984-41.948-17.314c-19.976-3.989-47.939-8.652-62.588-11.313
				l-26.631-4.663l21.968-5.322c11.987-2.666,24.639-10.654,27.969-17.979c11.318-20.645,31.958-27.964,52.598-19.312
				c13.979,5.327,23.306,4.663,42.607-3.325c36.626-15.317,84.561-12.651,128.506,6.655c42.607,18.643,62.583,21.309,62.583,6.655
				c0-29.292-125.166-68.574-171.113-53.926c-7.988,2.661-21.309,1.328-28.628-2.666c-11.982-5.991-12.651-9.316-5.991-17.31
				c13.311-15.981,56.592-35.957,78.569-35.957c23.306,0,31.958-9.985,20.635-23.301c-17.305-20.64-110.518-5.322-119.844,19.312
				c-2.661,7.988-9.985,18.643-15.981,23.301c-5.986,4.663-10.654,15.981-10.654,24.639c0,9.316-3.989,15.977-9.316,15.977
				s-27.964,8.652-49.937,19.307c-48.604,22.637-83.892,19.971-59.258-4.658c5.991-5.996,4.663-7.988-7.319-7.988
				c-22.642,0-40.615-11.982-40.615-27.305c0-13.979,15.977-22.637,54.595-29.292c27.295-3.999,38.613-14.648,22.637-19.976
				c-5.991-1.997-14.648-4.658-19.976-5.986c-7.988-2.666-7.988-6.665-2.002-19.976c6.665-14.653,11.992-17.314,38.618-17.314
				c20.645,0,36.626,4.663,47.939,13.315c9.326,7.324,19.976,13.32,24.634,13.32c11.323,0,62.593-31.294,76.572-46.611
				c11.318-11.982,11.318-13.311,0.664-17.31c-12.646-4.663-43.945,6.655-43.945,16.646c0,3.33,7.993,2.661,17.979-2.661
				c21.973-11.323,29.292-7.329,11.323,6.655c-15.981,12.651-36.621,12.651-53.271,0.669c-12.646-9.99-12.646-9.99,0-19.307
				c6.66-5.332,10.654-12.656,7.993-16.65c-7.324-11.982-17.314-9.321-12.646,2.666c3.325,9.321,1.997,9.985-9.99,3.33
				c-33.955-17.979-19.312-22.637,107.192-33.291c66.582-5.991,82.563-5.327,105.195,3.33
				c28.638,11.982,35.293,22.637,10.659,17.974c-17.979-3.33-64.585,13.984-64.585,23.97c0,3.994,13.979,7.324,31.953,7.324
				c42.617,0.664,114.521,33.96,114.521,54.595c0,2.661-10.649,5.327-23.301,5.327c-15.313,0-23.306,3.33-23.306,8.652
				c0,9.326,26.636,24.639,43.276,24.639c5.327,0,9.99,4.658,9.99,9.985c0,11.987,23.965,13.32,50.596,3.33
				c15.986-5.991,21.978-4.663,45.283,11.982c15.313,10.654,52.598,32.627,83.892,47.939c49.932,25.298,54.595,29.297,39.946,33.291
				c-10.649,2.661-17.31,1.333-18.643-3.994c-2.666-11.318-41.943-24.634-49.937-16.65c-10.654,10.654,0.664,18.652,50.601,37.29
				c25.967,9.99,61.255,23.97,77.9,31.294l29.961,12.646l-19.312,17.314c-17.974,15.313-23.965,16.646-59.922,13.979
				c-45.938-3.989-57.256-1.333-57.256,11.987c0,4.658-6.66,10.654-14.648,11.982
				C4349.907,5733.286,4156.821,5735.283,4110.214,5730.625z"/>
			<path fill="#272541" d="M5047.666,5724.628c-3.989-15.977-25.957-17.31-57.251-4.658c-11.987,5.327-43.281,8.657-71.245,8.657
				c-46.606-0.669-49.932-2.002-51.929-15.317c-2.671-17.305,9.985-20.64,15.972-5.322c5.996,14.648,17.979,11.982,35.957-5.996
				c9.326-10.654,13.315-20.635,10.649-27.964c-3.994-9.985-12.646-10.654-75.898-7.983c-79.897,4.658-87.886,3.33-87.886-15.322
				c0-15.308-21.309-17.31-33.291-2.656c-4.663,5.322-10.649,9.985-13.979,9.985c-3.325,0-5.996-4.663-5.996-9.985
				c0-7.993-10.649-9.985-51.27-10.654c-67.241-0.669-104.531-11.318-107.192-31.289c-2.661-16.65-25.298-35.293-37.949-30.63
				c-4.663,1.997-10.649,0.664-13.315-3.33c-1.997-3.994-11.982-7.324-21.968-7.324c-25.977-0.669-79.902-25.967-69.248-32.627
				c5.322-2.661,21.304-3.325,36.616,0c15.313,2.666,29.961,3.335,33.291,1.333c7.993-4.658-21.968-53.267-37.954-60.586
				c-13.975-7.324-27.959-10.654-85.22-21.309c-38.618-7.324-69.907-22.637-59.253-29.292c3.989-2.666,29.961-6.66,57.256-8.657
				c75.234-5.996,81.23-27.964,10.649-39.282c-27.295-4.658-44.604-15.981-23.965-15.981c5.327,0,11.982-4.658,14.648-10.654
				c6.66-17.31,31.299-22.637,76.567-15.977c23.306,3.33,70.571,7.324,105.859,8.652l63.921,3.33l10.654-18.643
				c6.655-9.985,21.304-30.625,33.286-45.938c37.954-47.271,53.936-76.572,57.93-107.197l3.989-29.961l9.326,18.643
				c11.318,22.637,27.295,21.309,35.957-3.994c7.983-21.973,0.664-37.285-23.306-49.272l-15.981-8.652h16.646
				c17.979,0,59.922-22.637,59.922-31.958c0-3.33-5.991-11.318-13.315-17.979c-15.981-14.648-16.646-25.298-2.666-37.285
				c9.326-7.324,7.329-9.985-13.315-20.645c-27.295-13.975-33.291-29.292-7.319-17.305c9.321,3.994,18.638,5.322,20.635,3.33
				c5.332-5.332-9.316-43.945-21.299-57.93c-4.663-5.986-7.329-17.31-5.337-25.293c3.33-11.987,6.665-13.32,16.65-7.329
				c11.318,5.991,12.651,3.999,12.651-18.647c0-45.933,58.589-117.842,105.864-129.829c18.643-4.658,29.961-11.982,32.622-19.976
				c3.999-15.977,12.651-15.313,39.287,5.332c18.638,13.979,21.968,20.635,21.968,45.273c0,15.313,4.663,33.955,9.99,41.279
				c5.322,6.655,9.985,17.974,9.985,25.303c0,18.643,76.567,90.552,97.202,90.552c33.291,0,62.588,17.974,75.244,46.602
				c6.655,15.313,19.976,31.958,29.961,37.285c9.316,5.327,25.298,13.984,35.947,19.312c11.318,5.991,36.621,9.985,67.915,9.985
				c27.295,0.664,61.919,5.322,76.567,10.649s42.617,14.648,62.588,20.645c43.281,13.315,32.622,20.635-30.63,21.299
				c-31.294,0.669-41.943,3.335-41.943,9.99c0,5.332,3.989,10.654,9.321,12.651c5.327,1.997,10.649,10.654,11.982,19.312
				c1.333,11.982,6.66,15.981,25.967,17.31c19.976,1.997,24.634-0.664,31.294-15.317c11.318-25.298,40.615-19.971,30.63,5.996
				c-7.329,19.307-45.942,37.285-79.238,37.285c-30.62,0-31.289,0.669-27.29,17.31c3.33,12.651,0.664,19.976-10.659,29.297
				c-19.302,15.313-11.982,23.301,21.309,21.309c22.642-1.338,26.631,0,26.631,11.313c0,21.973,17.979,21.309,63.252-2.661
				c51.27-27.3,57.261-28.628,37.285-7.324c-19.307,19.971-13.315,30.625,16.646,30.625c12.651,0,22.642,1.997,22.642,5.327
				c-0.664,11.318-24.639,32.627-41.948,37.285c-24.639,5.991-22.642,20.645,3.989,29.297l21.309,6.655l-24.634,0.669
				c-13.315,0.664-26.636,3.994-29.292,8.657c-8.662,13.315,18.643,25.967,52.593,23.965c18.643-1.328,30.63,0.669,28.633,4.663
				c-0.664,3.994-6.665,5.991-11.987,4.663c-12.646-2.002-35.947,23.965-41.279,46.606c-3.33,14.644-0.664,19.307,19.312,31.289
				c12.651,7.324,23.306,17.314,23.306,21.309c0,4.658,4.658,13.979,11.318,20.64c9.985,11.313,9.985,11.982-9.326,7.988
				c-13.315-2.661-21.968-0.664-25.298,4.658c-8.652,12.651,13.979,24.639,56.592,29.297c21.309,2.661,40.61,7.993,41.943,12.651
				c1.997,4.658,22.642,15.313,45.273,23.97c39.287,13.979,41.284,15.313,25.967,21.304c-9.321,3.33-33.286,4.658-53.262,2.666
				c-106.528-11.318-145.142-16.646-161.128-20.645c-15.972-3.989-18.638-2.656-18.638,9.326c0,13.311-3.33,13.979-54.595,13.979
				c-47.275,0-66.587-3.999-130.498-26.631c-68.579-23.306-94.546-27.3-94.546-13.315c0,6.655,95.879,49.932,131.167,59.253
				c15.308,3.999,51.929,10.654,81.89,14.653c30.625,3.325,63.911,10.654,75.903,15.977c19.976,8.652,18.643,8.652-27.3,7.988
				c-51.27-1.328-61.919,2.666-48.604,18.643c7.319,8.657,3.989,9.99-26.631,9.99c-19.312,0-73.906-4.663-121.182-10.654
				c-47.266-5.996-87.212-9.326-89.883-7.329c-7.988,7.993,12.656,24.639,37.29,29.302l23.965,4.658l-33.291,4.658
				c-17.974,2.666-56.592,5.327-85.215,5.327C5056.323,5737.949,5051,5736.616,5047.666,5724.628z M4616.889,5617.436
				c3.999-6.655-7.319-19.307-17.31-19.307c-1.992,0-7.319,2.661-12.651,5.991c-11.313,7.324-3.325,20.64,12.651,20.64
				C4606.24,5624.76,4614.233,5621.43,4616.889,5617.436z M5370.585,5151.372c-1.333-3.994-5.327-6.66-8.657-6.66
				c-3.325,0-7.319,2.666-8.652,6.66s2.661,7.324,8.652,7.324C5367.929,5158.696,5371.918,5155.366,5370.585,5151.372z"/>
			<path fill="#272541" d="M3118.164,5267.221c-22.637-5.991-29.966-15.977-29.966-41.943c0-19.976-3.989-28.628-17.974-39.282
				c-12.651-9.321-15.313-13.32-7.988-13.984c5.991,0,15.977-5.991,22.637-13.315s18.643-13.315,26.631-13.315
				c7.993,0,22.642,5.991,31.958,13.315c9.326,7.324,19.312,13.315,23.306,13.315c3.325,0,11.318,5.996,18.643,13.984
				c6.66,7.988,24.634,19.976,39.282,27.295l26.631,12.651l-15.977-13.979c-16.646-14.648-13.984-17.314,6.655-6.66
				c13.984,7.988,17.314,36.621,4.663,44.614c-4.663,2.661-26.636,7.319-48.604,9.985c-21.968,1.997-45.942,5.991-53.267,7.319
				C3137.47,5269.223,3125.488,5269.223,3118.164,5267.221z"/>
			<path fill="#272541" d="M3497.007,5233.93c-1.997-7.319-12.651-15.977-23.301-19.976c-13.32-5.322-19.312-11.982-19.312-23.301
				c0-31.289-10.654-35.952-32.622-13.315c-25.967,25.967-47.939,33.291-56.597,19.312c-5.322-7.993-9.985-8.657-21.973-2.666
				c-11.982,5.327-17.974,4.663-28.628-5.327c-11.318-9.985-13.315-10.649-16.641-1.333c-2.666,5.327-3.335,14.648-1.997,19.976
				c1.328,5.991,0,10.654-3.335,11.318c-7.319,0.669-45.273-18.638-63.252-31.953c-13.311-10.659-13.979-13.989-7.319-33.296
				c3.994-11.318,10.649-21.973,14.644-21.973c4.663-0.664,29.302-1.328,55.928-1.992c29.297,0,51.27-3.999,56.597-9.321
				c13.979-13.984-5.996-21.309-59.258-21.309c-49.272,0-64.58-8.657-29.297-16.646c10.654-1.997,28.633-11.318,41.279-20.64
				c27.969-20.645,51.934-19.976,117.188,0.664c63.916,20.64,75.234,20.64,123.838,0.669c20.64-8.657,37.949-13.32,37.949-9.99
				c0,2.666-2.661,7.324-6.655,9.321c-11.982,7.329-6.66,22.637,10.654,31.958l17.974,9.326l-27.964,4.658
				c-33.291,5.327-48.608,19.307-63.916,60.591c-9.99,25.298-10.654,35.283-5.327,50.601c4.658,12.651,5.327,20.64,0.664,23.301
				C3502.998,5244.584,3498.34,5240.59,3497.007,5233.93z"/>
			<path fill="#272541" d="M3893.159,5205.971c-22.632-22.642-25.298-27.3-19.976-45.278c7.329-25.967,17.319-44.609,29.297-53.926
				c5.332-4.663,53.936-10.654,115.186-13.984c89.219-5.327,115.19-9.321,164.453-25.967c67.915-22.642,75.239-27.964,65.249-45.942
				c-5.991-11.987-4.653-13.315,9.326-10.649c13.311,2.661,16.641,0,23.96-23.97c7.334-24.639,9.99-27.3,29.966-27.3
				c25.972,0,33.291-8.652,18.647-22.637c-12.651-12.651-15.981-12.651-31.963-0.664c-17.31,13.311-25.962,12.646-44.604-2.666
				c-12.656-10.654-14.648-14.648-7.329-21.309c14.648-15.313,8.657-19.307-29.287-19.307c-41.284,0-62.593-8.652-62.593-24.639
				c0-8.652,5.996-9.985,36.621-5.986c39.946,4.658,74.57-5.996,99.868-29.297c7.324-6.66,21.973-15.313,31.958-19.307
				c10.659-3.994,17.314-9.985,15.313-13.315c-1.997-3.33,8.662-7.324,23.306-9.985c14.648-2.666,41.948-11.987,59.922-20.645
				c34.619-17.979,39.951-15.977,21.309,5.327c-9.321,9.985-9.99,13.979-3.33,15.981c15.981,5.991,26.631,21.973,23.306,35.952
				c-1.997,7.329-19.976,31.289-39.282,52.598c-19.976,21.309-35.957,41.943-35.957,45.942c0,3.994,7.319,11.982,16.646,17.979
				c18.643,11.982,16.646,12.646,65.918-26.631c19.976-15.317,25.962-17.314,33.955-10.654c5.322,4.658,9.985,11.982,9.985,16.641
				c0,4.663,6.66,13.32,15.313,18.643l14.653,10.654l-16.65,13.315c-9.326,7.324-20.635,13.979-25.298,13.979
				c-5.327,0-17.979,5.996-27.969,13.32c-10.649,7.319-28.628,15.313-41.279,17.31c-23.301,4.658-45.273,19.976-45.273,31.289
				c0,3.999,4.663,11.987,10.649,18.647c9.326,9.99,8.662,12.646-9.316,25.298c-10.654,7.324-35.288,17.314-53.936,21.309
				c-18.638,3.994-33.955,8.652-33.955,11.318c0,1.997,4.668,9.321,11.323,15.981c11.982,13.315,2.661,16.646-18.643,4.658
				c-15.317-7.988-59.258,5.327-59.258,17.979c0,13.984-27.964,29.292-53.926,29.292c-17.979,0-27.305-3.989-33.96-14.644
				c-9.321-13.984-11.982-14.648-33.291-6.665c-12.646,3.999-27.295,7.993-33.291,7.993c-12.646,0-18.643,13.315-18.643,40.615
				c0,16.646-2.666,19.312-18.638,19.312c-39.287,0-63.926-41.943-47.944-83.228c5.327-13.32,5.327-20.64,0-25.967
				c-11.313-11.323-27.964,11.982-29.961,43.276c-0.664,15.981,0,21.304,1.333,11.318c3.33-23.306,15.317-24.634,15.317-1.333
				c0,18.643-10.654,43.281-22.642,50.605C3940.434,5237.929,3917.798,5231.269,3893.159,5205.971z M4403.168,4823.134
				c12.651-5.332,23.306-13.32,23.306-16.65c0-9.985-3.33-9.321-33.291,5.996C4352.568,4833.12,4360.556,4840.444,4403.168,4823.134
				z"/>
			<path fill="#272541" d="M3738.032,5130.732c-19.312-27.295-9.326-51.929,20.64-51.929c19.307,0,20.64-21.309,1.992-51.27
				c-13.979-23.306-25.298-26.636-47.939-14.648c-10.649,5.991-22.637,4.663-51.929-3.999
				c-55.928-16.641-117.183-11.978-148.472,11.987c-24.639,18.643-64.585,23.97-84.561,11.318c-8.652-5.986-8.652-7.324,0-13.315
				c5.327-3.33,13.984-6.66,19.307-6.66c6.66,0,7.324,1.997,1.333,9.321c-6.655,7.993-5.327,8.657,5.327,5.996
				c17.979-4.663,17.979-19.976,0.664-25.303c-7.324-1.997-13.315-5.991-13.979-8.652c-2.666-25.308-5.996-43.276-8.652-46.606
				c-2.002-1.997-15.322,8.652-29.302,23.965l-25.967,27.964h-52.598c-63.916,0-77.896,5.996-59.258,26.636
				c10.654,11.982,11.323,15.308,3.335,20.64c-5.327,3.325-21.309,4.658-35.957,2.661c-18.643-2.661-37.285,1.333-69.243,13.984
				c-34.624,13.984-51.27,16.646-80.562,14.648c-23.97-2.002-47.271,0-64.585,6.655l-26.631,9.985l-63.252-34.619
				c-61.919-33.286-85.889-40.615-85.889-27.3c0,3.33,15.977,16.646,34.619,29.961c38.618,25.967,33.296,31.294-9.321,9.321
				c-15.977-7.988-33.291-11.982-41.943-9.985c-14.648,3.994-15.313,3.33-6.66-14.644c14.648-30.63,18.643-67.92,7.993-67.92
				c-13.32,0-23.975,13.984-28.633,38.623c-3.999,18.643-7.988,21.304-59.922,37.28c-64.58,20.64-101.865,29.297-162.456,37.954
				c-23.97,3.33-60.586,9.321-81.23,12.651c-20.635,3.994-45.942,5.322-55.259,2.661c-9.321-1.997-20.645-0.669-25.967,3.325
				c-13.984,11.987-77.9,26.636-107.197,24.639c-14.648-0.669-33.291-5.327-41.279-9.321c-8.657-4.663-15.313-6.655-15.313-3.994
				s-5.327,0-11.318-5.327c-6.66-5.996-22.642-13.979-35.957-17.974c-13.311-3.999-32.622-16.65-42.612-27.305
				c-10.649-11.318-23.301-19.971-27.964-19.971c-5.322,0-19.976-4.663-33.955-10.654l-24.634-10.654l26.631-23.301
				c14.653-13.315,42.612-31.289,61.919-39.946c36.621-17.31,43.281-29.966,20.64-41.943c-9.985-5.996-20.64-5.332-43.276,2.656
				c-26.631,8.657-32.622,8.657-59.258-1.328c-32.622-11.987-37.28-17.979-16.641-24.634c7.324-1.997,13.315-7.993,13.315-12.651
				c0-26.631,67.915-36.616,100.537-15.313c19.307,12.646,25.967,9.321,25.967-13.984c0-19.971-35.952-54.595-56.592-54.595
				c-14.653,0-49.937-33.291-49.937-47.275c0-26.631,37.949-65.913,63.916-65.913c7.988,0,17.979-4.663,22.637-10.649
				c14.653-17.314,54.6-30.63,81.895-27.305c23.301,3.33,24.639,2.671,24.639-15.977c0-27.959-31.299-59.253-85.894-85.22
				c-45.938-22.642-65.913-40.615-28.628-26.631c79.893,29.961,184.429,105.859,205.068,149.136
				c25.298,52.598,39.946,69.912,59.922,69.912c19.307,0,19.307,0,1.997-29.297c-14.648-25.303-12.651-37.949,5.991-32.627
				c19.312,4.663,34.624,19.976,37.949,35.957c5.327,27.3,30.63,33.955,52.598,13.315c15.322-13.984,69.248-33.955,91.885-33.955
				c7.988,0,45.278-10.654,83.892-23.975c37.949-12.646,73.237-21.968,78.564-19.971c10.654,3.994,22.637-7.324,44.609-42.612
				c8.657-12.646,26.631-29.961,41.279-37.954c29.961-16.641,43.945-39.946,45.273-76.563c1.333-19.312,5.332-29.297,17.983-38.618
				c14.644-11.318,15.308-14.648,8.652-25.962c-7.324-11.323-6.66-12.651,0.664-9.99c5.327,1.997,15.977,0.669,23.306-3.999
				c11.982-5.986,12.646-9.316,6.655-21.304c-7.983-15.313,0.669-25.298,23.306-25.298c16.646,0,103.862-88.555,103.862-105.2
				c0-17.974-15.308-29.961-25.298-19.971c-3.994,3.994-9.985,5.327-12.651,2.661c-8.652-8.657-9.99-219.717-1.997-250.342
				c3.999-15.313,14.648-34.624,22.637-42.612c8.657-7.324,21.973-28.633,29.292-45.942c16.65-37.949,35.962-63.252,59.263-78.564
				c8.657-5.996,15.981-13.315,15.313-16.646c-0.664-3.33,5.991-7.324,14.648-9.321c11.313-2.661,20.635-15.977,35.288-49.937
				c11.318-25.962,26.631-57.256,35.288-70.571c7.988-13.315,12.646-29.302,10.649-35.293c-2.661-6.66,3.994-19.307,16.646-34.614
				c11.323-12.651,27.3-36.621,34.624-53.276c13.984-28.618,42.607-55.918,59.922-55.918c4.658,0,0.664,8.657-9.321,18.633
				c-9.985,9.995-17.979,21.318-17.979,23.975c0,3.335-11.318,23.97-25.298,46.606c-13.984,22.637-35.288,62.588-47.275,89.224
				c-17.31,38.613-19.971,50.596-13.979,57.92c9.99,12.651,31.294,1.997,39.282-18.643c7.324-18.643,81.895-131.831,130.498-199.746
				c29.961-40.605,38.613-57.256,39.282-79.229c1.997-35.952,23.301-53.931,119.844-102.529
				c61.924-31.299,76.567-35.947,106.528-35.283c29.961,1.328,39.951-2.002,83.228-29.307c27.3-17.305,63.252-35.283,80.562-41.27
				c43.281-14.658,79.897-55.264,79.897-89.893c0-10.645,2.666-12.656,15.317-9.98c11.978,3.32,17.31,0.664,22.637-11.982
				c5.986-12.656,17.979-19.971,45.273-27.969c35.288-9.99,38.613-9.99,49.936,0c18.638,17.305,35.288,9.326,51.929-23.301
				c26.631-53.271,18.643-108.525-23.306-164.463c-20.635-26.631-41.943-82.549-41.943-108.516c0-11.328,4.663-21.973,11.982-25.977
				c10.659-6.66,9.99-8.652-7.319-23.965l-17.974-15.977l25.967-58.584c13.979-31.963,33.291-79.238,42.607-105.205
				c45.942-127.168,41.279-119.18,99.868-165.117c29.961-23.975,61.255-50.615,69.248-59.258l15.313-15.977l-13.315-192.422
				c-15.981-235.693-15.981-234.365-40.61-290.967c-19.976-45.264-29.302-107.188-26.631-178.428
				c4.648-126.504,3.325-151.807-6.001-163.125c-8.652-10.645-9.985-10.645-17.974,1.338c-7.993,9.98-9.99,10.645-15.313,1.992
				c-9.321-14.648-7.993-18.643,6.655-23.301c14.648-4.668,46.606-43.281,46.606-55.264c0-4.658-5.991-7.988-12.651-7.988
				c-11.313,0-13.315-5.996-15.313-44.619c-1.333-25.293-5.322-50.586-7.988-56.592c-4.658-9.98-1.997-11.973,11.318-11.973
				c20.645,0,59.922-31.299,55.259-43.945c-7.319-18.643,8.662-8.662,22.642,13.975c7.988,12.656,16.646,23.311,19.971,23.311
				c3.335,0,7.993,9.98,10.654,21.963c2.002,11.318,11.318,29.961,19.971,39.951c8.662,10.654,15.986,21.973,15.986,25.977
				c0,3.32,11.318,19.971,25.298,36.611c17.314,21.973,21.968,31.953,15.313,33.955c-37.285,12.656-45.938,70.586-12.646,86.553
				c13.315,5.996,18.643,14.648,21.973,34.619c2.661,16.65,9.321,29.307,17.974,33.965c11.987,6.65,11.987,7.988,2.661,22.637
				c-15.977,24.629-13.979,43.271,5.332,43.271c26.631,0,37.28,7.324,51.26,33.965c8.662,17.969,18.647,26.621,31.294,29.287
				c86.558,18.643,101.206,26.641,101.206,55.938c0,9.316-9.326,30.625-19.976,47.266c-21.968,33.291-17.979,39.287,13.32,23.301
				c25.293-13.311,47.935-9.316,78.56,14.648c25.303,18.643,41.943,43.945,81.23,121.182c25.303,49.267,27.964,59.258,24.639,87.881
				c-4.004,29.961-2.666,33.291,19.302,51.934c12.651,11.318,34.624,26.631,47.939,33.301c13.989,7.324,29.297,17.305,33.96,23.301
				c4.653,5.322,21.973,11.982,39.277,14.639c37.954,5.996,55.264,22.646,73.911,72.578c19.976,53.262,27.295,95.205,27.295,156.465
				v51.26l32.627,39.951c43.94,55.273,61.919,93.887,59.253,129.844c-1.997,25.957-5.327,30.615-46.606,62.568
				c-40.61,31.299-48.604,34.629-89.888,39.297c-51.265,5.322-61.25,9.316-97.871,41.27c-14.644,11.982-31.289,21.982-37.944,21.982
				c-5.996,0-23.975-10.664-39.287-23.311c-30.625-25.967-37.954-27.295-56.592-14.639c-11.323,8.643-9.99,9.971,13.979,21.963
				c25.967,12.646,39.282,35.957,20.645,35.957c-5.327,0-22.642-10.654-38.618-23.311c-15.981-12.646-33.286-23.301-37.954-23.301
				c-11.982,0,5.991,32.627,35.288,63.252l23.306,24.639l-13.315,17.305c-7.324,8.662-13.32,23.311-13.32,31.299
				c0,31.953-59.258,76.563-102.534,76.563c-9.99,0-24.634,3.34-32.622,7.324c-25.298,12.656-111.191,101.875-111.191,114.521
				c0,11.318-4.658,12.656-41.284,10.654c-43.936-2.002-101.201,11.982-130.493,31.289c-15.313,9.99-16.641,9.326-26.631-5.322
				c-6.66-7.998-12.651-23.965-14.648-34.619c-4.658-25.967-17.979-29.297-27.964-7.988c-5.991,14.639-5.327,21.963,3.33,40.605
				c13.311,27.295,10.654,28.633-17.31,7.324c-11.987-9.316-29.302-19.307-38.618-23.301c-12.651-4.658-21.309-15.977-29.297-36.611
				c-12.656-31.963-22.642-37.295-36.621-19.98c-16.646,19.316-31.289,22.637-66.577,15.313c-31.958-6.66-35.288-5.996-51.269,8.652
				c-27.295,25.303-33.955,48.604-30.625,106.533c4.663,59.922,4.663,59.922-69.248,68.574c-40.61,4.668-41.943,5.332-41.943,23.975
				c0,10.654,4.663,30.625,9.985,43.276c13.32,32.622,19.976,86.558,10.654,91.88c-11.987,7.319-59.253-8.657-70.576-24.639
				c-5.327-7.993-9.985-20.64-9.985-28.628c0-20.635-14.653-29.966-54.6-33.286c-44.604-4.663-69.243,9.98-90.547,53.257
				c-19.312,37.954-30.625,109.863-21.309,133.833c3.999,9.985,6.66,30.62,6.66,46.611c0,33.281,9.99,45.933,56.597,70.571
				c28.623,15.313,29.292,15.313,77.896,3.999c62.588-14.658,76.572-15.322,65.249-0.674c-7.319,8.662-6.655,11.987,4.663,23.975
				c11.982,11.978,18.643,12.642,63.916,8.657c61.919-5.991,72.573-14.658,91.216-75.239c12.651-43.94,28.628-67.915,45.273-67.915
				c11.323,0,9.99,16.646-5.327,70.571c-6.655,25.967-15.308,59.932-19.312,75.239l-5.986,28.633l49.267,55.928
				c27.3,29.961,49.272,57.925,49.272,60.591c0,3.325,5.991,9.321,13.979,13.975c7.988,4.663,11.987,10.654,9.985,12.656
				c-1.997,2.661-0.664,7.983,3.33,12.651c4.663,5.986,4.663,15.977-1.328,34.614c-13.315,45.278,5.327,83.891,21.304,43.281
				l7.329-18.642l7.988,23.969c17.305,49.937,47.266,79.233,79.897,79.233c20.635,0,25.962,7.988,17.969,28.623
				c-11.313,29.961,13.315,55.269,79.238,81.899c57.251,22.637,86.553,27.959,86.553,15.977c0-3.325-3.33-6.655-6.66-6.655
				c-11.318,0-39.946-31.299-39.946-43.281c0-7.988,7.988-4.658,32.622,11.323c31.958,21.304,65.249,41.943,88.555,55.259
				c6.66,3.33,11.987,8.657,11.987,11.323c0,9.985-15.317,5.322-34.629-11.323c-22.632-18.638-31.958-18.638-41.943,0.669
				c-3.994,7.324-11.982,11.982-17.979,10.654c-10.649-2.002-51.929,34.614-51.929,45.938c0,2.661,9.321,6.66,19.971,9.321
				c19.312,3.994,26.631,18.643,13.32,26.631c-12.656,7.324-45.947-3.994-79.897-27.3c-35.957-24.629-46.611-27.959-46.611-13.311
				c0,11.318,54.6,60.586,82.563,75.234c11.313,5.991,48.604,12.651,83.892,15.313c62.588,4.663,151.138,28.628,161.128,42.612
				c7.319,9.99,6.655,45.273-0.674,56.592c-4.653,6.66-13.979,7.988-35.283,4.663c-52.593-7.993-55.264-7.324-55.264,2.661
				c0,5.327,12.656,15.981,28.628,23.301l27.964,13.989l-43.271,21.968c-23.306,11.982-47.271,29.297-53.267,37.954
				c-5.327,8.652-8.652,15.977-6.655,15.977c1.992,0-4.663,12.651-15.986,28.628c-10.649,15.981-22.632,41.279-26.631,56.592
				c-4.653,15.317-9.985,27.969-11.982,27.969c-2.661,0-13.979-9.321-25.967-20.645c-11.982-11.982-33.286-23.301-49.932-26.631
				c-27.964-6.66-29.961-5.991-47.275,13.979c-19.307,20.645-23.306,35.957-11.987,43.281c16.65,9.985,3.994,29.292-37.28,56.597
				c-36.621,23.965-51.265,29.961-82.563,31.953c-35.952,2.666-39.282,1.997-50.596-15.313
				c-7.988-11.982-12.656-31.958-12.656-55.928c-0.659-20.64-3.33-47.939-5.991-61.255c-3.994-18.643-1.997-28.628,8.662-46.606
				c17.305-28.628,17.305-52.598,0.659-85.889c-7.988-15.977-15.981-49.937-19.307-84.556c-6.665-67.246-16.65-81.226-47.275-65.249
				c-9.985,5.327-27.964,20.64-39.946,33.955c-19.976,22.642-21.309,27.3-18.643,62.588l2.661,37.949l-39.946,7.319
				c-25.303,4.668-58.589,18.647-91.88,37.954c-27.964,16.646-57.261,29.966-64.585,29.966c-15.313,0-21.309,7.988-27.295,35.947
				c-2.666,13.989-7.993,20.645-16.65,21.309c-26.631,1.333-29.292,3.33-36.616,25.298c-9.321,28.638-2.666,44.614,37.949,93.882
				c18.643,21.973,37.285,49.268,42.612,59.922c7.988,15.981,14.648,20.64,36.621,23.301c28.628,3.999,62.583,21.973,62.583,33.296
				c0,3.33-11.982,9.985-26.631,13.979c-14.648,4.658-26.631,9.985-26.631,12.651c0,11.318,56.592,17.314,71.245,7.988
				c4.658-2.661,9.985-17.31,12.642-31.958c3.33-21.304,1.333-29.961-7.983-39.282c-11.323-11.318-11.323-11.982,0.664-20.645
				c19.312-13.979,37.949-11.313,53.926,8.662l14.648,18.643l24.639-11.982c13.315-5.996,27.295-9.99,31.294-7.324
				c10.649,6.655-28.628,42.607-65.249,59.253c-18.647,7.993-39.287,21.973-45.278,30.63c-10.649,15.977-10.649,15.977,18.647,20.64
				c29.961,3.989,74.565,22.637,81.221,33.291c2.007,3.325-1.323,13.311-7.319,23.301c-7.324,10.649-9.985,23.965-7.324,35.957
				c4.658,23.965-15.317,39.277-50.605,39.277c-23.96,0-25.293-1.333-21.304-16.646c3.33-11.982-0.664-24.634-13.315-43.94
				c-23.97-35.288-37.285-31.958-50.596,11.987c-14.653,51.265-23.306,56.592-45.942,29.292
				c-19.312-23.306-33.96-23.306-33.96-0.664c0,7.319-7.324,17.974-16.646,23.97c-12.651,7.988-15.308,14.644-12.651,26.631
				c2.666,10.654-0.664,19.971-13.311,31.958C3777.314,5149.379,3751.343,5150.043,3738.032,5130.732z M3905.146,4329.101
				c-5.991-5.991-18.643,3.999-13.979,11.987c2.661,3.994,6.655,3.994,11.313-0.669
				C3906.479,4336.425,3907.812,4331.762,3905.146,4329.101z M3952.422,4277.836c5.322-3.994,17.974-19.976,28.623-35.288
				c16.646-24.634,25.308-30.63,59.263-39.951c43.276-11.982,54.595-21.299,37.949-29.961c-5.322-3.33-11.982-15.313-14.648-25.967
				c-5.327-22.637-13.979-25.962-19.971-7.324c-1.997,7.324-7.998,14.648-13.32,16.646c-5.327,2.002-9.985,10.654-9.985,19.976
				c0,15.317-10.649,23.97-30.625,23.97c-11.318,0-33.291-41.943-39.282-76.572c-2.671-14.644-7.329-31.294-9.99-36.616
				c-8.652-14.648-14.648,16.646-11.982,59.922c1.997,34.629,3.33,37.285,27.964,50.605l25.967,14.644l-19.312,11.987
				c-12.646,8.657-34.619,13.315-70.576,15.313l-51.27,2.002l37.954,25.962C3917.129,4292.485,3931.782,4294.482,3952.422,4277.836z
				 M4190.112,4252.534c0-4.658-5.322-9.985-11.323-11.313c-11.982-2.002-16.641,11.982-7.319,21.304
				C4178.125,4269.179,4190.112,4263.188,4190.112,4252.534z M4113.544,4216.582c0-5.327-2.666-9.99-5.996-9.99
				c-8.657,0-14.638,10.654-9.316,15.981C4105.556,4229.897,4113.544,4226.567,4113.544,4216.582z M4153.491,4124.033
				c-23.965-11.982-55.933-29.961-71.904-39.946c-31.958-19.976-53.936-20.645-23.975-0.669
				c39.287,25.967,113.188,62.588,125.84,62.588C4190.771,4146.005,4178.125,4136.684,4153.491,4124.033z"/>
		</a>
	</g>
	<g>
		<a id="area-2" xlink:href="realisations.html"  xlink:title="Lien vers Réalisations">
			<path fill="#47333C" d="M8418.642,5397.719c-13.311-15.977-15.977-23.301-10.645-32.622c9.98-18.643,8.652-19.976-22.646-19.976
				c-15.967,0-41.943-4.663-57.91-10.649c-18.652-5.996-38.623-8.657-55.273-5.996c-13.984,1.997-51.26-1.333-83.232-6.655
				c-31.279-5.996-73.232-13.32-93.203-17.314c-19.98-3.325-43.281-10.649-52.598-16.646l-15.986-10.654l13.994-14.644
				c21.299-22.637,18.643-37.954-5.996-32.622c-11.318,1.997-43.281,3.989-71.914,4.653c-51.26,0.669-51.26,0.669-53.262-17.31
				c-1.992-15.313,1.338-19.971,21.309-27.959c24.629-10.654,43.945-39.282,43.945-67.251c0-13.311-3.33-16.641-16.65-16.641
				c-13.984,0-16.641,3.33-16.641,18.638c0,10.654-5.322,23.97-11.328,29.297c-17.979,15.981-60.586,27.3-83.223,22.637
				c-11.982-1.997-24.639-0.664-29.287,3.335c-20.645,17.31-7.334-6.665,14.639-27.305c17.314-15.308,21.982-23.301,15.322-26.631
				c-18.652-11.982-61.934,15.981-75.244,49.268l-7.988,19.976l-15.313-24.629c-13.32-21.309-13.975-27.969-7.988-45.947
				c3.994-11.318,7.324-27.295,7.324-35.952c0-11.982,4.658-15.313,27.969-19.307c29.951-5.327,71.895-39.282,71.895-58.589
				c0-5.996,6.67-15.317,14.648-20.645c11.328-7.988,12.656-12.646,6.66-18.643c-12.646-12.651-40.615,4.663-52.598,33.291
				c-19.297,45.942-34.629,45.942-61.914-1.328c-26.641-47.275-62.588-79.233-81.895-73.242
				c-28.633,8.652-51.934,23.306-49.277,31.294c4.004,12.651,31.299,13.315,44.609,1.333c11.318-10.654,12.656-9.99,23.311,5.986
				c18.643,28.638,27.295,97.881,17.979,143.818c-4.668,21.973-6.66,49.937-4.668,61.919c5.332,27.3-7.314,39.946-37.275,36.621
				c-16.65-1.328-24.639-7.324-34.629-25.303c-6.66-12.651-21.299-32.622-31.963-43.276c-10.645-11.318-19.307-22.637-19.307-24.634
				c0-2.666,11.992-18.643,27.295-35.957c14.648-16.641,25.977-35.947,24.639-41.943c-3.33-15.977-29.287-16.646-49.941-1.997
				c-22.627,15.981-63.906,27.964-96.533,27.964c-17.979,0-31.299-5.327-47.275-19.971c-27.959-24.639-54.59-27.3-47.275-5.332
				l4.004,13.984l-21.982-12.651c-12.646-7.324-35.947-18.643-51.923-25.298c-29.971-11.318-29.971-11.318-41.279,3.325
				c-10.664,14.648-11.318,14.648-38.623,3.999c-15.303-6.655-33.291-11.323-39.941-11.323c-6.66,0-27.959-11.318-47.939-25.293
				c-48.604-33.96-58.594-37.29-73.232-23.975c-15.986,14.648-15.986,20.64,1.328,25.967c11.982,3.994,12.646,5.991,5.322,12.651
				c-14.648,12.646-45.273,23.97-49.268,17.974c-1.328-3.325,0-14.644,3.994-25.962c3.984-11.318,5.986-28.633,4.648-39.287
				c-1.992-16.646-5.313-19.307-31.953-21.968c-34.609-4.663-59.912-18.643-59.912-33.291c0-25.967-27.305-33.291-59.932-16.646
				c-23.301,11.982-25.303,6.655-6.66-13.315c11.992-12.651,12.656-15.313,4.004-23.306c-16.65-13.315-57.92,11.318-73.906,44.614
				c-7.324,15.313-20.635,35.288-29.307,44.604c-14.639,15.317-14.639,17.31-3.984,21.309c5.996,2.661,26.631-0.669,45.273-7.329
				c56.592-20.64,117.852-15.308,131.826,11.323c9.98,17.974-3.33,28.628-80.557,65.918c-31.299,15.308-64.58,31.958-74.58,36.616
				c-9.98,5.327-37.275,9.316-63.252,9.316c-25.293,0-48.594,1.997-51.26,4.668c-2.656,2.661,2.002,9.985,10.654,16.641
				c14.648,11.318,14.648,11.987,1.992,11.987c-7.314,0-20.635,4.658-29.297,10.649c-8.652,5.991-17.305,8.657-19.971,5.327
				c-1.992-3.325-13.32-6.66-25.303-6.66c-16.641-0.664-19.971,1.333-17.305,9.321c3.33,7.988,0.664,9.326-11.982,5.996
				c-8.662-2.666-20.654-4.663-26.631-4.663c-6.66,0-10.654-4.658-9.99-11.318c0.664-9.99-4.668-11.982-30.625-11.982
				c-25.303,0-31.299-1.997-28.633-9.99c2.002-7.324-7.324-13.311-35.283-21.968c-20.645-5.996-44.609-11.318-52.607-11.318
				c-13.32,0-14.648-2.666-10.649-19.976c3.33-18.643,1.328-21.304-17.314-28.628c-11.982-3.994-22.632-13.984-24.634-21.309
				c-1.992-7.324-17.974-21.968-35.952-33.291c-17.979-10.649-33.291-25.967-34.619-32.622c-1.338-8.657-9.995-15.317-23.311-18.643
				c-25.298-6.66-24.634-5.327-11.987-29.297c13.325-25.967,12.661-37.949-3.32-52.598c-11.318-9.985-15.986-10.654-30.63-4.663
				c-21.299,9.985-29.302,9.985-29.302,0c0-4.658-13.311-20.64-30.61-35.283l-30.64-26.636l6.001-56.592
				c4.658-52.598,6.66-56.597,21.304-58.589c23.306-3.33,43.94,3.325,67.241,22.632c11.987,10.654,23.301,15.317,26.636,11.982
				c6.66-7.319,39.946-88.545,39.946-98.535c0-4.663,4.663-13.984,9.99-22.637l10.645-14.648l24.634,13.315
				c13.325,7.324,31.294,13.315,39.297,13.315c13.979,0,15.308,3.335,15.308,31.958c0.664,33.291,8.647,49.272,29.302,56.592
				c6.65,2.671,10.635,6.665,8.643,9.326c-2.656,1.997-1.328,7.988,2.656,12.651c5.342,6.655,4.004,13.315-6.65,26.626
				c-9.316,11.987-13.979,27.305-13.979,47.939c0,25.972,3.335,32.627,25.298,53.931c13.984,13.315,33.291,28.638,42.617,35.293
				c8.652,5.986,19.971,22.637,24.639,38.613c6.65,21.973,13.311,29.961,31.953,37.29c20.635,8.652,24.639,8.652,39.277-0.669
				c8.672-5.327,15.986-15.313,15.986-20.64c0-5.996-16.65-29.297-37.285-51.265c-20.645-22.642-39.951-47.944-43.281-56.597
				c-7.314-18.643-1.328-63.252,10.654-79.233c7.998-10.649,10.654-10.649,49.277,0c65.908,18.643,127.158,12.656,127.158-11.318
				c0-9.985-15.313-13.315-91.211-21.309c-47.266-4.653-57.92-17.31-38.613-46.602c19.971-30.63-1.328-65.918-23.311-39.282
				c-10.645,13.315-30.625,12.646-35.947-0.664c-2.002-5.996-3.994-18.643-3.994-29.297c0-27.969-5.996-37.954-30.635-53.267
				c-17.979-11.318-24.629-12.646-36.611-6.66c-11.992,6.66-21.973,4.663-61.25-13.311l-46.616-21.973l-11.313,15.308
				c-10.649,13.989-13.325,14.653-33.296,7.329c-17.979-5.991-25.298-5.327-37.949,3.325c-21.309,13.32-25.303,25.972-16.646,53.267
				c5.996,19.307,5.322,23.97-3.325,27.3c-16.65,6.66-21.973-11.987-17.979-58.594l3.999-43.94l-24.639-3.994
				c-38.613-5.991-83.228-26.636-83.228-37.949c0-17.983-19.307-38.623-39.287-43.281c-10.64-1.997-21.299-8.652-23.301-13.315
				c-5.322-15.313-57.915-49.937-74.565-49.937c-9.331,0-16.65-5.322-19.307-13.315c-3.335-10.654-9.995-13.315-30.63-13.315
				c-31.958,0-33.286-7.993-3.33-25.303c41.279-24.634,63.916-99.204,39.951-133.159c-10.654-15.313-12.646-15.313-89.878-10.654
				l-79.238,4.663v-45.278c0-24.634-3.33-56.592-7.319-70.576c-10.659-33.955,1.328-62.583,29.282-71.904
				c11.323-3.994,25.972-12.651,32.637-18.643c11.318-9.99,15.308-9.99,62.573,4.663c56.592,17.979,82.568,41.279,82.568,73.901
				c0,15.313,4.663,22.637,20.64,31.289c36.616,19.976,59.253,41.948,59.253,57.266c0,23.301,20.645,37.285,53.936,37.285
				c15.972,0.664,36.616,4.658,45.938,9.985c32.632,18.638,47.271,12.651,93.218-35.952c23.965-24.639,55.928-51.934,71.235-59.258
				c33.296-17.31,48.608-37.285,48.608-63.252c0-10.649,2.666-17.309,6.655-14.648c3.994,1.997,6.66,19.306,6.66,37.285
				c0,31.289,0.664,32.622,13.975,25.967c7.329-4.663,15.327-5.991,17.319-3.999c1.992,1.338-17.319,16.65-42.617,32.627
				c-36.621,23.97-52.593,39.287-73.901,73.906c-15.313,23.97-27.964,45.938-27.964,49.268s5.991,11.323,12.651,17.31
				c12.646,11.323,14.639,9.99,55.264-27.959c22.627-21.309,55.259-50.601,71.235-65.254c16.65-14.644,35.293-40.615,43.945-60.586
				c17.979-39.951,49.268-81.894,61.924-81.894c11.982,0,9.316,11.982-3.34,15.312c-9.316,2.666-8.652,3.33,2.002,3.994
				c7.998,0,16.641-4.653,18.652-10.649c4.648-11.318-5.996-21.972-20.654-21.972c-4.658,0-8.652-5.991-8.652-13.315
				c0-16.641,3.33-16.641,30.635,0.669c27.295,16.641,27.959,27.295,5.996,53.93c-18.643,21.968-18.643,36.616-0.664,33.286
				c5.977-1.333,12.646,2.666,14.639,8.657c3.33,7.324,13.975,9.985,39.277,9.985c43.281,0,59.268,12.651,54.6,42.607
				c-5.986,37.959,39.951,119.849,77.236,140.493c28.623,15.308,53.936,5.322,47.275-19.312
				c-2.676-11.318,0.664-16.646,13.984-22.632c17.979-8.662,36.621-10.654,36.621-4.668c0,1.997-4.668,10.654-10.664,19.976
				c-9.98,14.648-9.316,15.981,6.66,26.636c21.299,13.979,67.256,20.635,73.242,10.649c2.656-3.994-0.674-16.646-6.65-28.633
				l-11.328-21.304l47.939-43.94c25.967-23.97,47.275-47.944,47.275-53.931c-0.664-33.96-64.58-43.281-129.844-18.643
				c-23.955,9.321-46.602,12.651-61.914,10.654c-33.291-4.663-91.875-26.636-106.523-39.946
				c-6.66-6.665-18.643-11.323-26.641-11.323c-19.971,0-23.291-9.321-17.979-50.601c6.66-54.594,20.645-61.25,127.842-59.253
				l83.223,1.328l-4.004-27.3c-7.979-52.598-32.617-124.507-48.594-141.152c-12.646-13.984-19.297-16.641-33.955-12.651
				c-9.98,3.335-37.295,4.668-61.26,4.668c-33.945-1.333-58.584,3.989-114.521,22.637c-41.27,13.311-77.227,21.968-84.551,19.307
				c-7.324-1.997-19.971-16.65-28.633-31.958c-23.291-42.622-21.299-42.622-155.127,27.295l-73.242,38.618v43.945
				c0,47.935-5.996,59.922-30.625,59.922c-57.266,1.328-151.138-12.656-215.723-31.294
				c-105.195-31.299-113.188-32.627-125.84-19.976c-8.647,9.321-12.651,9.985-20.635,3.33c-5.332-4.663-9.995-12.651-9.995-17.31
				c0-5.327-16.636-25.967-36.616-45.942c-32.627-31.958-36.611-39.282-36.611-63.921c0-36.616-15.317-66.572-46.611-91.875
				c-14.648-11.987-38.618-39.951-53.926-62.588c-15.322-22.642-35.293-49.937-45.283-59.922
				c-16.646-17.979-17.31-22.637-21.299-126.509c-2.666-65.244-7.993-116.504-13.315-129.16
				c-7.329-18.643-7.329-22.646,1.997-33.291c25.962-29.297,91.88-133.164,91.88-144.482c0-21.973,32.622-62.578,70.571-87.217
				l35.293-23.975l71.899,4.658c43.945,2.002,94.546,9.99,129.839,19.98c80.562,21.973,93.218,21.299,123.838-9.316
				c22.637-23.301,26.631-25.303,47.939-20.645c15.986,3.33,27.964,2.002,38.613-4.658c13.984-9.326,14.648-13.984,14.648-97.871
				v-88.555l26.641-36.621c15.303-19.307,28.618-43.281,31.289-52.607c1.992-9.316,10.645-28.623,19.302-43.936
				c9.985-17.979,16.641-43.271,19.316-76.563c3.984-43.955,2.661-55.938-15.986-109.863c-11.309-33.965-20.64-70.576-20.64-81.895
				s8.652-42.607,19.976-69.912c10.654-27.295,23.97-77.227,29.966-111.855c13.975-77.236,29.297-123.838,67.241-199.072
				c29.292-59.258,35.952-89.219,21.309-94.541c-11.987-4.004,0.664-25.303,22.642-37.295c14.648-8.652,26.631-8.652,82.549-1.328
				c91.221,12.646,129.834,27.969,161.123,64.58c41.953,49.268,67.256,97.217,77.91,146.484
				c7.988,39.287,13.32,49.268,35.283,69.238c14.648,12.656,27.959,28.633,29.961,34.629c4.004,11.318-3.994,72.568-11.982,92.539
				c-5.332,14.648,23.311,47.285,70.576,79.893c55.928,37.959,68.574,65.264,64.58,139.16c-2.002,31.963-6.66,63.252-10.645,71.24
				c-4.004,7.314-12.656,36.621-17.979,65.254c-10,48.594-10,53.926,0,81.895c19.307,48.594,72.568,121.836,122.51,166.445
				c26.631,23.301,58.594,59.258,71.904,79.893c25.967,41.279,75.234,143.154,75.234,156.475c0,4.658,5.996,19.307,12.656,33.291
				c6.65,13.311,11.982,24.639,10.645,24.639s-31.299-6.006-66.572-13.32c-35.303-7.324-71.914-13.32-79.902-13.32
				c-15.986,0-58.594,31.299-53.926,39.287c1.328,1.992-19.316,33.955-46.611,70.576s-49.268,68.574-49.268,71.23
				c0,2.666-9.326,15.322-20.645,27.969c-15.977,18.652-20.635,31.294-23.975,61.924c-3.984,44.604-32.617,117.842-73.887,186.426
				c-17.324,28.628-27.979,54.59-26.641,63.247c2.666,18.647,12.637,18.647,22.637-0.664l7.324-14.648l9.316,14.648
				c9.326,13.979,9.99,13.979,29.297-13.975c10.654-15.327,25.967-47.944,33.955-71.909c9.99-27.969,19.316-45.947,27.969-48.608
				c13.984-5.322,25.293-29.961,30.625-68.574c3.33-24.634,12.646-41.289,56.592-100.537c15.322-20.64,21.299-37.954,26.631-75.239
				c6.66-52.598,14.639-67.91,35.293-67.91c21.299,0,233.037,110.518,269.648,141.147c18.643,15.981,34.619,31.958,34.619,35.952
				c0.664,3.999,7.988,13.984,17.314,22.646c9.326,8.647,16.65,19.971,16.65,25.298c0,5.991,5.313,15.977,11.973,23.301
				c10.664,12.651,10.664,13.315-11.318,30.62c-37.285,27.974-60.576,54.6-60.576,67.915c0,17.314-5.332,15.981-21.973-4.663
				c-13.994-17.974-59.258-41.934-79.229-42.607c-5.996,0-13.984,7.993-17.988,18.643c-3.994,9.985-23.965,49.272-43.936,87.217
				c-39.287,72.578-39.951,87.222-5.996,87.222c16.641,0,27.305-8.647,57.92-49.263c23.975-31.294,53.262-45.947,90.566-44.619
				c26.621,0.674,33.281-2.656,47.255-19.307c15.322-17.979,21.973-20.635,73.252-26.626c31.289-3.33,72.568-6.66,91.211-6.66
				c30.625,0,38.613-2.661,61.25-23.306c13.984-12.651,35.957-27.959,49.268-33.286c27.959-11.323,35.957-21.973,21.973-27.295
				c-13.984-5.327-13.32-20.649,1.338-28.638c13.984-7.319,23.301-2.656,34.619,18.643c11.973,23.311,17.979,7.998,23.301-61.919
				c4.668-61.255,23.965-136.479,40.615-160.454c5.332-7.324,9.316-17.314,9.316-23.311c0-13.311,60.586-139.814,67.246-139.814
				c2.666,0,12.656,15.977,22.646,35.283c12.646,26.641,18.633,51.934,22.637,100.547c2.656,35.283,7.979,67.236,11.309,69.902
				c3.33,3.33,27.305,23.301,52.607,45.283c25.967,21.963,63.252,59.912,82.568,83.223c31.953,39.277,37.939,43.94,65.234,47.935
				c17.314,1.997,36.631,9.321,43.281,15.313c15.313,13.315,16.65,11.987,61.25-53.931c27.969-41.274,30.635-49.263,30.635-84.561
				c0-35.283,1.328-39.277,13.975-39.277c7.334,0,22.637,6.66,33.955,13.984c23.311,17.314,28.633,12.646,35.293-31.963
				c2.002-16.65,8.652-41.953,13.975-56.592c5.342-15.977,9.336-52.588,9.336-89.219c0-53.262,2.656-67.246,15.977-93.877
				c9.307-17.979,19.971-43.945,23.965-58.594c15.313-51.934,73.232-114.521,73.232-78.564c0,29.297-23.301,89.883-45.938,117.188
				c-62.588,79.229-67.9,97.861-44.609,153.799c8.662,21.299,12.656,23.965,33.965,23.965c28.623,0,49.922-9.98,49.922-23.311
				c0-5.313,9.336-19.971,19.98-31.953c11.318-12.646,19.971-29.297,19.971-37.285c0-7.324,2.666-13.975,5.996-13.975
				c3.994,0,25.967,16.65,50.605,37.285l43.271,37.285l-3.32,33.945c-7.998,68.584-11.328,78.574-40.615,122.52
				c-47.275,70.571-46.611,64.58-15.322,98.53c29.297,31.958,37.959,35.293,59.258,21.978c10.654-6.655,14.658-6.655,18.643-0.664
				c5.322,8.652,63.252,31.294,111.191,42.607c27.295,6.66,40.605,15.981,75.234,51.265c22.637,23.301,41.279,45.947,41.279,50.601
				c0,4.668,10.654,23.975,23.301,43.945c25.977,41.943,27.969,51.938,11.992,63.262c-11.328,7.983-11.328,9.312,0.674,22.632
				c12.637,13.979,12.637,13.979-1.338,13.979c-16.641,0-19.971,18.643-4.668,23.97c14.648,5.991,12.656,15.313-9.98,49.268
				c-10.654,16.646-19.98,35.957-19.98,43.281c0,16.641,26.631,45.938,53.271,59.922c11.318,5.986,19.971,11.318,19.971,12.651
				c0,1.328-12.656,0.664-27.969-0.669c-33.281-3.33-77.227,9.326-87.881,25.967c-9.316,14.648,19.971,46.611,63.252,68.579
				c39.941,20.64,50.605,12.646,31.963-23.97c-14.648-29.292-10.664-33.96,8.643-9.321c23.975,30.63,85.225,17.31,76.582-16.646
				c-2.666-11.318,1.328-21.303,15.313-37.954c15.977-17.974,19.971-28.628,19.971-51.929c0-32.627,3.994-35.288,33.281-19.976
				c25.303,13.315,25.303,27.964,0,89.883l-19.971,48.608l52.607,57.256c51.924,56.592,53.262,57.256,80.557,55.264
				c23.311-1.997,31.289,0.664,47.939,16.646c28.633,26.631,80.557,99.204,101.201,139.819
				c35.293,69.907,47.93,167.114,25.303,195.078c-11.318,13.32-13.984,13.984-39.287,6.655c-25.967-7.988-29.287-7.319-47.93,8.662
				c-11.318,9.321-23.975,17.974-28.633,19.307c-17.305,5.991,78.564,99.204,153.799,149.81
				c36.621,24.634,44.609,25.962,101.865,17.969c17.979-1.992,41.279-0.664,54.609,3.999c19.297,5.991,32.617,5.322,69.902-3.999
				c44.6-10.649,71.904-9.316,64.58,2.666c-11.309,19.312,82.559,87.886,119.844,87.886c25.967,0,32.627-7.988,21.309-25.962
				c-4.668-7.324-6.66-15.317-3.994-17.31c6.66-7.329,64.58,33.286,67.91,47.935c3.994,13.979,27.969,27.295,35.947,19.312
				c6.66-7.324-17.305-49.272-35.947-61.924c-9.98-6.655-42.607-35.288-73.232-63.252c-29.961-28.628-57.93-51.934-61.26-51.934
				c-12.656,0-33.291-43.271-37.949-79.897c-3.994-31.294,9.326-127.832,18.643-137.822c3.994-3.994,71.24,65.918,67.91,70.581
				c-5.322,9.985,23.301,47.271,36.611,47.271c10,0,13.33,4.663,13.33,17.31c0,21.968,11.309,42.612,23.301,42.612
				c11.318,0,12.646,7.324,3.994,16.646c-3.33,3.994-7.988,18.643-9.99,33.286c-4.658,29.297,12.646,67.251,34.619,73.906
				c5.996,1.997,20.645,7.988,31.299,13.32c27.285,12.651,93.213,19.976,99.209,9.985c7.979-11.987,28.623-8.657,55.254,9.99
				c53.262,35.947,91.221,51.265,131.836,53.262c32.627,1.328,39.951,3.994,41.943,13.979c1.992,17.314-22.637,54.595-41.279,61.255
				c-16.65,6.66-27.305,24.639-17.314,30.625c3.33,1.997,19.307,0,36.621-3.989c33.955-8.657,49.932-1.333,49.932,23.296
				c0,7.329,2.666,17.983,5.996,23.306c6.66,10.654,20.645,3.999,20.645-9.321c0-13.984,10.645-17.31,29.287-9.316
				c13.984,6.655,19.307,5.322,35.293-6.66c47.266-36.621,89.883-58.594,78.564-40.615c-7.324,11.982,15.313,39.282,39.951,49.268
				c29.951,12.651,29.287,20.645-1.338,36.621c-45.938,22.637-54.59,23.306-63.252,4.663c-9.98-22.637-23.301-21.973-28.623,1.992
				c-11.328,51.938-104.531,97.212-239.697,116.519c-36.621,5.327-75.898,11.987-86.553,13.984
				c-20.645,4.658-20.645,4.658-17.979-22.637c3.33-32.627-2.666-33.96-58.594-13.984c-25.293,8.652-55.254,12.651-96.533,13.315
				c-77.236,0-88.555,3.33-99.209,29.961c-11.318,26.631-28.633,30.63-115.186,25.303c-55.928-3.33-66.582-1.997-74.57,7.324
				c-4.658,5.991-14.639,10.654-21.973,10.654c-8.652,0-15.977,7.324-20.635,19.307c-9.99,26.631-23.975,28.633-67.246,8.657
				c-40.615-17.979-49.941-17.31-36.631,4.658c4.668,7.324,7.334,14.648,5.996,15.977c-7.988,7.324-121.172,8.657-123.174,2.002
				c-1.328-3.999-3.994-15.317-5.996-25.308c-5.322-24.629-45.264-36.616-77.891-22.632c-15.977,6.655-26.631,7.324-40.615,2.661
				c-10.645-3.989-26.631-4.658-36.621-1.997c-13.975,3.33-20.635,0.664-32.617-14.648l-14.658-18.638l-23.301,11.982
				c-30.625,16.646-80.566,67.91-75.234,77.231c2.666,3.994,10.654,7.324,17.969,7.324c16.65,0,15.986,9.985-1.992,22.637
				c-18.643,13.32-71.24,13.984-101.201,1.333c-39.951-16.646-103.867-16.646-120.508,0.669
				c-13.32,12.646-79.902,14.644-102.539,2.661c-12.646-7.324-15.313-5.332-28.623,22.637
				c-15.322,31.294-29.971,37.285-61.924,23.301c-11.982-5.322-11.982-5.986-1.328-5.986c15.303-0.669,53.926-20.645,48.594-25.308
				c-1.992-1.997-7.314-0.659-11.982,3.33c-7.988,5.996-32.607,10.654-47.939,8.657c-2.656-0.664,1.338-5.991,9.326-12.646
				l15.313-11.992l-30.615-11.978c-31.299-11.987-81.23-15.981-89.893-7.329c-5.322,5.327,3.994,12.651,57.93,47.275
				c19.297,12.646,47.266,25.298,61.914,28.628c32.627,7.324,54.6,25.967,44.609,37.954c-4.658,5.327-4.658,9.321,0.664,12.651
				c11.982,7.319,7.324,16.641-9.326,16.641c-9.307,0-18.643,3.33-21.299,7.324c-2.656,5.327-20.635,5.991-57.266,2.661
				c-41.279-3.325-58.584-1.992-81.895,7.329c-31.289,11.313-36.611,18.643-19.971,25.298c19.316,7.324,9.99,17.31-15.977,17.31
				C8441.278,5418.359,8432.626,5414.37,8418.642,5397.719z M6765.439,4731.25c14.658-17.31,14.658-25.303-1.328-25.303
				c-7.314,0-17.305-1.997-23.301-3.994c-12.646-4.658-27.959,23.97-21.299,40.615
				C6724.833,4756.547,6748.808,4750.561,6765.439,4731.25z M7248.164,4211.918c1.992-15.981,0-18.643-14.658-18.643
				c-15.313,0-25.293-7.993-27.949-23.301c-0.674-3.33-3.33-11.323-6.006-17.31c-2.656-6.66,2.676-18.647,12.656-31.294
				c9.99-10.649,17.314-25.303,17.314-31.958c0-7.329,2.656-16.65,5.986-21.973c5.332-7.988,7.988-7.988,16.65-1.333
				c8.652,7.324,12.646,7.324,20.635,0.669c14.648-11.987,12.656-15.981-11.318-25.303c-20.635-7.324-20.635-7.993-8.652-21.309
				c17.979-19.971,21.963-79.228,5.996-91.216c-25.313-18.643-83.906-2.661-92.549,24.639c-1.992,7.324,0.664,29.292,7.314,48.598
				c10.664,35.293,10.664,36.621-3.33,55.269c-15.977,22.637-40.615,88.55-40.615,111.187c0,29.297,59.268,66.577,99.883,62.588
				C7242.167,4230.566,7246.826,4225.898,7248.164,4211.918z M7429.267,4184.624c0-13.315-5.332-27.3-12.666-33.955
				c-10.645-9.985-12.637-9.985-20.635-0.669c-7.314,8.652-6.65,14.648,2.002,33.291
				C7412.616,4213.916,7429.267,4213.916,7429.267,4184.624z"/>
			<path fill="#47333C" d="M5899.902,4644.692c-29.966-32.622-35.952-46.606-30.63-81.895c3.335-26.631,7.319-33.95,26.636-44.604
				c30.62-17.979,35.947-43.281,13.984-61.919c-9.321-7.993-19.307-20.645-21.313-28.633c-3.32-10.649-1.328-13.979,10.659-15.981
				c24.634-3.33,21.968-21.304-5.332-33.955c-31.294-15.313-25.962-20.64,11.323-11.982c15.977,3.994,41.953,7.324,57.256,7.324
				c37.29,0,47.275,4.658,58.589,27.295c12.656,24.639,12.656,25.303-5.996,32.627c-11.304,3.994-19.297,14.648-24.619,33.955
				c-4.663,14.648-21.978,41.943-37.959,60.591c-28.628,31.289-29.292,33.286-20.645,50.601c4.668,9.985,9.99,20.64,11.323,23.965
				c1.992,2.666-6.655,3.33-17.979,0.669c-25.298-5.322-27.29,7.329-6.655,40.61
				C5935.859,4671.992,5926.528,4672.656,5899.902,4644.692z"/>
			<path fill="#47333C" d="M5802.7,4514.858c-2.676-1.992-4.668-9.316-4.668-15.977s-5.991-13.979-13.975-15.981
				c-10.659-3.33-12.651-7.988-9.995-19.971c2.002-8.652,1.328-17.979-2.656-19.976c-8.657-5.327-8.657-36.616,0-36.616
				c13.979,0,59.248,26.631,69.243,41.279c12.651,17.979,13.979,52.598,2.656,63.911
				C5834.658,4520.185,5810.019,4522.182,5802.7,4514.858z"/>
			<path fill="#47333C" d="M7152.285,2492.148c-7.324-29.971-25.967-53.271-59.258-72.588
				c-41.279-24.629-49.932-39.277-49.932-87.871c0-22.637-4.658-51.943-9.99-64.58c-12.646-31.309-12.646-54.609,0.664-93.896
				c12.646-36.611,21.299-41.943,49.941-29.951c25.293,9.98,32.617,27.295,52.588,115.85c7.998,36.611,20.635,89.219,27.979,116.514
				c13.975,49.941,13.311,99.873-0.674,124.502C7158.281,2510.127,7156.933,2509.453,7152.285,2492.148z"/>
		</a>
	</g>
	<g>
		<a id="area-3" xlink:href="apropos.html"  xlink:title="Lien vers A propos">
			<path fill="#00293D" d="M9366.757,4494.887c0-6.655-4.668-23.97-10.654-39.951c-9.316-23.301-9.316-31.958-2.666-49.932
				c3.994-11.982,9.326-57.261,11.328-100.532c1.992-43.281,5.986-79.238,7.979-81.23c2.666-1.333,8.662,0,13.984,3.325
				c7.988,4.663,7.314,9.321-2.666,27.964c-6.66,11.982-10.654,31.289-9.316,41.943c1.992,17.314,4.658,19.976,19.971,17.983
				l17.979-2.002l-13.984,31.963c-9.98,22.632-15.313,50.596-17.305,97.202c-2.002,35.293-5.996,64.585-8.662,64.585
				C9369.423,4506.206,9366.757,4500.878,9366.757,4494.887z"/>
			<path fill="#00293D" d="M9337.45,4182.626c-1.992-5.996-3.984-17.314-3.984-25.967c0-8.657-6.66-19.976-17.314-26.631
				c-13.984-8.657-16.641-14.653-12.646-28.633c2.666-9.99,7.314-21.973,11.318-26.631c8.652-10.654,21.973-6.655,21.973,5.991
				c0,5.991,5.996,8.657,15.303,7.324c7.998-1.333,22.646,3.989,31.963,11.318c9.98,7.988,21.982,13.979,26.631,13.979
				c11.328,0,24.639,24.639,19.98,37.29c-2.656,6.655-8.652,8.652-15.986,6.655c-7.979-2.661-21.299,2.666-37.949,15.977
				C9348.114,4195.937,9342.792,4197.275,9337.45,4182.626z"/>
			<path fill="#00293D" d="M9304.843,4042.138c-2.002-3.33-5.332-15.977-7.998-28.628c-8.652-45.938-9.98-47.939-27.295-43.945
				c-14.648,3.994-15.986,2.661-14.648-17.309c1.992-19.976,0-21.973-15.986-21.973c-10.645,0-22.627-6.655-31.289-17.979
				c-9.99-11.982-24.629-19.971-49.268-25.298c-19.971-3.994-45.273-15.981-59.922-27.3c-18.643-15.308-29.297-19.307-41.943-16.646
				c-19.307,5.327-19.307,3.999-2.666-29.292c7.324-14.653,13.311-34.624,13.311-45.273c0-10.654,3.994-23.306,9.326-27.3
				c10.645-8.657,15.977-3.999,36.621,37.949c10.654,20.64,17.969,27.964,29.961,27.964c8.652,0,19.98,4.663,24.629,10.654
				c7.324,9.316,5.996,12.651-7.314,23.306c-14.648,10.649-14.648,12.646-4.668,12.646c7.334,0,20.645-8.652,30.625-19.307
				l18.652-19.971l13.975,13.979c9.99,10.649,24.639,15.313,52.598,17.31l38.613,2.661l18.652,64.585
				c24.629,83.227,27.295,102.534,18.643,119.844C9340.126,4046.132,9310.819,4052.792,9304.843,4042.138z"/>
			<path fill="#00293D" d="M8845.429,3363.017c-9.316-32.627-11.318-75.898-4.658-88.555c3.984-7.324,17.305-17.305,29.297-22.637
				c24.629-10.654,50.605-39.951,50.605-57.92c0-7.324,3.32-12.646,6.65-12.646c3.994,0,6.66,5.322,6.66,11.309
				c0,8.662,1.992,9.326,7.988,3.33c4.658-4.668,10.654-7.979,13.984-7.979s-13.32,20.635-37.285,46.592
				c-54.6,57.266-61.26,68.584-47.275,80.566c17.969,14.648,23.975,31.299,15.977,45.938
				C8878.72,3377.666,8849.423,3378.994,8845.429,3363.017z"/>
			<path fill="#00293D" d="M8259.521,2993.496c36.621-45.938,59.248-79.902,68.584-101.865
				c5.986-14.658,18.633-35.957,27.959-46.621c9.316-11.309,21.963-30.615,27.969-43.926c13.975-30.635,73.896-94.551,83.887-91.221
				c9.98,3.33,34.619,65.908,29.951,77.227c-1.328,4.004-8.643,7.998-15.977,7.998c-13.975,0-60.586,41.943-60.586,53.926
				c0,4.004-24.639,34.619-53.926,68.584c-40.615,45.273-61.924,63.916-84.561,72.559
				C8262.851,2998.154,8254.853,2999.492,8259.521,2993.496z"/>
			<path fill="#00293D" d="M8843.427,2874.98c-25.293-9.99-37.949-91.885-24.629-155.127c11.982-54.6,21.973-53.271,19.98,2.656
				c-1.338,39.941,0.664,49.277,8.643,49.277c6.006,0,13.984-12.656,20.645-32.627c12.646-41.279,25.967-47.939,25.967-13.994
				c0,17.979-5.322,31.309-20.635,47.949c-24.639,28.633-22.646,37.949,9.307,40.605c34.639,2.676,23.975,14.658-12.637,14.658
				c-21.309,0-30.625,3.32-33.955,10.645c-6.66,17.314,15.977,29.297,53.926,29.297c18.643,0,38.613,3.33,43.945,6.66
				C8946.63,2882.969,8864.071,2883.633,8843.427,2874.98z"/>
			<path fill="#00293D" d="M9100.438,2828.379c0-3.34,9.98-11.318,21.963-17.314c28.623-14.639,28.623-13.975,15.313-28.633
				c-13.975-15.313-7.988-29.287,9.99-23.965c17.314,5.996,65.918-17.314,98.545-46.611c28.623-25.967,33.955-42.617,17.305-56.592
				c-14.648-11.982-11.982-19.971,5.996-19.971c8.652,0,28.623-5.996,44.6-13.32c38.623-17.305,55.273-16.65,75.244,3.33
				c22.627,22.637,45.273,21.309,65.908-3.33c9.326-10.645,17.979-22.637,19.307-26.621c2.666-8.662,58.604-28.643,63.916-23.311
				c2.002,1.992-8.643,16.65-23.965,31.953c-19.971,19.971-29.951,36.621-32.627,53.936c-3.33,21.973-9.316,29.287-44.609,51.934
				c-50.596,32.617-126.504,69.248-166.455,79.902c-29.277,7.988-31.279,7.324-50.586-11.318l-19.98-19.316l-16.641,15.977
				c-9.326,8.652-16.65,21.982-16.65,30.625c0,11.328-5.996,15.986-29.297,21.982
				C9101.767,2836.367,9100.438,2836.367,9100.438,2828.379z"/>
			<path fill="#00293D" d="M9113.749,2532.754c0-5.322-5.332-13.32-12.646-16.641c-16.65-9.316-39.951-57.93-35.957-73.906
				c3.33-11.982,0-13.311-25.967-13.311c-19.971,0-35.957,4.658-47.275,13.311c-9.316,7.324-17.969,13.311-19.971,13.311
				c-8.662,0-57.93-56.592-55.254-63.242c1.318-4.668,0-11.992-2.676-17.314c-4.658-7.324-8.652-6.65-19.307,3.33
				c-13.984,12.646-13.984,12.646-13.984-9.98c0-33.301-28.623-57.93-119.844-103.877c-93.877-47.266-104.531-60.586-81.23-103.193
				c7.998-15.977,14.658-33.291,14.658-39.277c0-18.652-9.326-20.645-21.309-4.668c-17.979,23.301-14.658,1.338,4.658-31.289
				c20.635-35.967,44.609-127.168,44.609-173.779c0.664-30.625,3.33-38.623,17.305-49.268c21.973-17.314,36.631-16.65,70.586,3.32
				c15.303,9.326,43.936,19.316,63.252,23.311c19.307,3.33,47.275,15.313,62.578,25.967
				c40.625,27.959,124.512,43.945,166.455,31.289c39.951-11.982,65.908-31.289,81.23-59.922
				c7.314-13.32,14.648-23.965,16.641-23.965c2.002,0,10.645,13.311,19.98,29.961c19.971,35.947,36.611,40.605,31.289,8.652
				c-2.002-11.982-5.986-27.295-8.652-34.629c-4.004-10.645-3.33-11.309,9.98-4.648c11.992,6.65,14.648,5.986,17.969-4.004
				c2.012-6.66,7.998-20.635,13.994-31.953c5.986-10.654,16.65-31.299,23.965-45.273c8.652-15.986,18.643-25.967,30.635-28.633
				c9.316-2.002,20.635-4.658,23.965-5.996c3.994-0.664,15.977,2.002,26.631,6.66c17.979,7.324,21.299,6.66,38.623-8.652
				l17.969-17.314l21.973,21.309c11.982,11.982,27.959,21.309,35.957,21.309c17.979,0,24.639,9.326,37.285,49.932
				c5.996,18.643,19.971,59.258,31.289,91.875c18.643,53.271,39.287,167.793,39.951,222.383c0,17.979-3.994,23.311-23.965,32.627
				c-22.646,10.654-82.568,82.568-82.568,99.209c0,3.33-8.652,11.318-19.307,17.305c-23.965,13.984-46.611,60.596-53.936,111.191
				c-3.32,24.639-12.646,50.605-25.957,71.24c-11.318,17.979-22.637,41.943-24.629,54.6c-7.998,42.607-21.982,19.971-38.623-62.588
				c-11.992-57.256-33.301-108.525-45.283-108.525c-4.658,0-29.287,15.986-55.254,35.283
				c-53.936,39.951-58.594,53.262-37.285,101.865c7.979,17.314,13.32,31.963,12.646,32.627c-9.99,5.996-47.939,16.65-73.232,20.635
				C9119.071,2542.734,9113.749,2542.08,9113.749,2532.754z"/>
			<path fill="#00293D" d="M10072.509,1853.633c0-2.002,9.326-19.971,19.971-39.277c22.646-39.951,24.639-56.592,9.99-83.896
				c-8.652-17.969-8.652-19.307,6.66-25.967c11.318-5.322,16.641-13.311,16.641-24.629c0-24.639,17.988-20.645,26.631,6.65
				c3.994,12.656,13.32,27.305,19.98,31.963s14.639,16.641,16.641,26.631c3.994,15.313,2.666,17.979-9.316,17.979
				c-7.324,0-16.65,5.996-20.645,13.32c-5.996,10.645-9.99,11.973-19.971,6.65c-10.654-5.322-13.984-2.656-25.967,22.637
				C10100.478,1831.66,10072.509,1864.951,10072.509,1853.633z"/>
			<path fill="#00293D" d="M10059.198,1648.564c-7.324-8.652-29.307-33.291-49.277-55.254
				c-19.307-21.973-44.609-53.271-56.592-69.258l-21.299-29.951l31.953-7.988c44.609-11.992,53.271-7.334,64.58,31.289
				c5.996,18.652,17.969,42.607,27.305,53.262c9.316,11.318,16.641,23.301,16.641,27.305c0,3.32,5.996,13.975,13.311,23.301
				c9.99,12.646,11.328,19.971,5.996,29.287C10083.163,1667.207,10075.175,1666.543,10059.198,1648.564z"/>
		</a>
	</g>
</g>
</svg>
